<svg width="100" height="24" viewBox="0 0 100 24" fill="none" xmlns="http://www.w3.org/2000/svg">
<g id="CS.MONEY_Full">
<path id="Vector" d="M96.1986 7.42847L93.5322 14.0672L90.8659 7.42847H87.2063L91.6431 17.0791C91.8577 17.5283 91.7044 17.8848 91.1098 17.8848H87.7542V20.6821H91.3978C93.2349 20.6821 94.0722 20.0447 94.5534 19.0231L99.6342 7.45232L96.1986 7.42847Z" fill="white"/>
<path id="Vector_2" d="M6.1385 15.0636C4.53869 15.0636 3.58547 14.0672 3.58547 12.6453C3.58547 11.2235 4.54002 10.2257 6.1385 10.2257C7.35569 10.2257 8.21425 10.8193 8.52355 11.7668H11.8165C11.4339 9.01722 9.2448 7.21509 6.1385 7.21509C2.7269 7.21509 0.365845 9.42005 0.365845 12.648C0.365845 15.8759 2.7269 18.0809 6.1385 18.0809C9.23946 18.0809 11.4579 16.2549 11.8392 13.5053H8.54755C8.23825 14.4461 7.37835 15.0636 6.1385 15.0636Z" fill="white"/>
<path id="Vector_3" d="M45.5072 7.28664C44.8466 7.2952 44.195 7.4392 43.5931 7.70962C42.9911 7.98005 42.4518 8.37106 42.0089 8.8582C41.389 7.88425 40.3224 7.28664 38.5426 7.28664C37.96 7.27993 37.3832 7.40324 36.8548 7.64748C36.3265 7.89171 35.86 8.25066 35.4897 8.69786V7.42842H32.3167V17.8848H35.4897V12.5499C35.4897 10.7239 36.3962 10.2734 37.6121 10.2734C38.8999 10.2734 39.6119 10.867 39.6119 12.5499V17.8848H42.7848V12.5499C42.7848 10.7239 43.6914 10.2734 44.9072 10.2734C46.1964 10.2734 46.907 10.867 46.907 12.5499V17.8848H50.0799V12.5499C50.0893 9.61351 49.0161 7.28664 45.5072 7.28664Z" fill="white"/>
<path id="Vector_4" d="M57.1818 7.21509C53.7702 7.21509 51.4092 9.42005 51.4092 12.648C51.4092 15.8759 53.7702 18.0809 57.1818 18.0809C60.5934 18.0809 62.9305 15.8759 62.9305 12.648C62.9305 9.42005 60.5921 7.21509 57.1818 7.21509ZM57.1818 15.0636C55.582 15.0636 54.6288 14.0672 54.6288 12.6453C54.6288 11.2235 55.5834 10.2257 57.1818 10.2257C58.7563 10.2257 59.7149 11.2222 59.7149 12.6453C59.7149 14.0685 58.7563 15.0636 57.1818 15.0636Z" fill="white"/>
<path id="Vector_5" d="M70.1443 7.28668C69.6306 7.27275 69.1202 7.37252 68.65 7.57878C68.1799 7.78504 67.7618 8.09263 67.4259 8.47927V7.42847H64.253V17.8848H67.4259V12.55C67.4259 10.724 68.3325 10.2735 69.5484 10.2735C70.8362 10.2735 71.5481 10.8671 71.5481 12.55V17.8848H74.7211V12.55C74.7251 9.61355 73.6519 7.28668 70.1443 7.28668Z" fill="white"/>
<path id="Vector_6" d="M83.9586 14.4408C83.604 15 82.8694 15.2292 81.8069 15.2292C80.5191 15.2292 79.5405 14.5163 79.2192 13.4271H87.5556V12.6453C87.5556 9.42001 85.2172 7.2124 81.8069 7.2124C78.3966 7.2124 76.0342 9.41736 76.0342 12.6453C76.0342 15.8732 78.3953 18.0782 81.8069 18.0782C84.5599 18.0782 86.873 16.6656 87.3769 14.4448L83.9586 14.4408ZM81.8069 9.78706C82.9401 9.78706 83.9893 10.3834 84.3319 11.4872H79.2579C79.5658 10.4152 80.6564 9.78706 81.8069 9.78706Z" fill="white"/>
<path id="Vector_7" d="M25.3362 13.7625L25.7295 13.7916C26.8987 17.4409 25.2522 21.8164 21.8913 23.5629V23.6013C25.2002 23.3031 29.5091 19.9493 29.7624 14.7815L30.2503 14.7165V13.9109C29.2558 13.3649 28.6052 11.0937 29.9983 9.88654C29.761 6.864 28.4425 3.84808 26.7654 1.7372L23.7604 0L23.3031 0.958045C22.9023 1.18538 22.5781 1.52544 22.3712 1.93546C22.1644 2.34549 22.0841 2.80715 22.1406 3.26239C22.2846 4.35957 23.0738 5.03139 24.5217 5.25003C25.2669 5.36001 25.5402 5.67671 25.6735 6.10207C25.8068 6.55128 25.7682 7.00711 25.4069 7.2708L25.4655 7.46162C26.1175 7.5027 26.4548 7.85915 26.5907 8.37991C26.7521 8.99608 26.7001 9.50359 26.1908 9.85342L26.2135 10.0151C26.816 10.2178 27.1467 10.8101 27.1653 11.4025C27.1853 12.0199 26.7267 12.6494 26.0388 12.9157C25.8122 13.0032 25.1349 13.1423 25.1349 13.1423L25.3362 13.7625ZM24.5763 4.33439C23.6738 4.45895 23.0725 3.93686 22.9658 3.17228C22.8485 2.32819 23.2885 1.66962 24.191 1.54639C25.0576 1.42713 25.6948 1.94392 25.8122 2.7827C25.9242 3.55258 25.4495 4.21646 24.5763 4.33439Z" fill="#FF159A"/>
<path id="Vector_8" d="M23.4818 14.5164C23.4818 12.6202 22.1686 11.4091 19.7356 11.4091H16.4906C16.1093 11.4091 15.708 11.1599 15.708 10.6856C15.708 10.2589 16.092 10.0363 16.4746 10.0363H23.1845V7.42847H16.7546C14.0882 7.42847 12.9137 8.85162 12.9137 10.7001C12.9137 12.4082 14.0829 13.8313 16.7546 13.8313H19.9915C20.0892 13.8278 20.1866 13.8443 20.2776 13.88C20.3685 13.9157 20.451 13.9698 20.5199 14.0388C20.5888 14.1077 20.6426 14.1901 20.6778 14.2808C20.7131 14.3714 20.7291 14.4683 20.7248 14.5654C20.7231 14.6622 20.7019 14.7577 20.6623 14.8462C20.6228 14.9347 20.5658 15.0144 20.4946 15.0805C20.4235 15.1466 20.3397 15.1979 20.2482 15.2312C20.1568 15.2645 20.0595 15.2792 19.9622 15.2744H13.2443V17.8848H19.7329C22.1686 17.8848 23.4818 16.6511 23.4818 14.5164Z" fill="white"/>
</g>
</svg>
