<svg width="3773" height="1002" viewBox="0 0 3773 1002" fill="none" xmlns="http://www.w3.org/2000/svg">
<path d="M1737.88 258.405L1737.88 258.406L1737.87 258.417L1737.85 258.466C1737.82 258.511 1737.78 258.58 1737.72 258.673C1737.61 258.859 1737.45 259.138 1737.22 259.495C1736.78 260.21 1736.11 261.24 1735.23 262.48C1733.47 264.964 1730.88 268.273 1727.57 271.574C1720.9 278.219 1711.54 284.598 1700.25 284.598H1564.67C1557.11 284.598 1550.23 280.582 1544.71 275.5C1539.19 270.431 1535.28 264.524 1533.66 261.279C1533.27 260.485 1532.86 259.531 1532.39 258.409C1532.34 258.287 1532.29 258.163 1532.24 258.037C1531.82 257.029 1531.36 255.916 1530.84 254.763C1529.66 252.166 1528.16 249.278 1526.02 246.589C1521.66 241.112 1514.84 236.676 1503.43 236.676H1463.13H1461.13V238.676V297.121V298.302L1462.16 298.872L1462.9 299.277V309.586L1217.47 288.798V282.869H1220.75H1222.75V280.869V220.832V218.893L1220.81 218.833L1220.75 220.832C1220.81 218.833 1220.81 218.833 1220.81 218.833L1220.81 218.833L1220.8 218.833L1220.79 218.832L1220.72 218.83L1220.45 218.822L1219.42 218.79C1218.52 218.762 1217.22 218.722 1215.63 218.673C1212.44 218.575 1208.05 218.442 1203.25 218.301C1194.55 218.044 1184.48 217.758 1177.78 217.603V46.2419H2164.36H2165.92L2166.3 44.7277L1737.88 258.405ZM1737.88 258.405L1738.45 257.384H1739.62H1747.68H1749.06L1749.55 258.669C1776.93 330.11 1785.4 427.161 1787.12 448.886L1787.12 448.896C1787.18 449.606 1787.49 450.27 1788.02 450.753C1788.54 451.235 1789.22 451.502 1789.92 451.5H1789.93H1855.26C1884.76 451.5 1915.85 437.799 1947.13 423.182C1978.58 408.481 2017.88 401.101 2040 401.828C2046.91 402.056 2058.23 402.937 2071.06 403.936C2078.54 404.518 2086.53 405.14 2094.46 405.696C2105.27 406.454 2115.99 407.092 2125.25 407.35C2134.33 407.604 2141.87 407.485 2146.66 406.793C2162.09 398.588 2183.7 378.993 2202.93 359.393C2222.24 339.709 2238.86 320.32 2244.02 313.106L2244.62 312.255L2245.67 312.269C2293.68 312.905 2390.84 309.069 2416.22 308.014M1737.88 258.405L2416.22 308.014C2416.22 308.014 2416.22 308.014 2416.22 308.014M2416.22 308.014C2418.45 307.916 2420.66 308.392 2422.65 309.395C2424.64 310.399 2426.34 311.897 2427.59 313.745L2416.22 308.014ZM1654.29 168.394L1656.26 168.026L1655.95 166.394H1654.29H1561.36C1554.32 166.394 1549.3 170.124 1545.83 175.534C1542.4 180.865 1540.39 187.943 1539.19 195.124C1537.16 207.326 1537.38 220.459 1537.49 227.147C1537.51 228.336 1537.53 229.322 1537.53 230.062C1537.53 235.419 1539.5 245.915 1544.36 255.122C1549.22 264.332 1557.3 272.763 1569.67 272.763H1696.09C1700.19 272.763 1704.29 271.051 1708.03 268.562C1711.8 266.059 1715.37 262.667 1718.43 259.053C1721.51 255.435 1724.13 251.537 1725.99 247.974C1727.82 244.496 1729.06 241.069 1729.06 238.463L1654.29 168.394ZM1654.29 168.394C1656.26 168.026 1656.26 168.027 1656.26 168.027L1656.26 168.028L1656.26 168.033L1656.26 168.049L1656.27 168.109L1656.29 168.177C1656.29 168.223 1656.3 168.278 1656.32 168.343C1656.35 168.547 1656.41 168.848 1656.47 169.234C1656.61 170.007 1656.8 171.126 1657.02 172.516C1657.46 175.296 1658.03 179.165 1658.53 183.526C1659.52 192.191 1660.28 202.999 1659.19 211.034C1658.05 219.482 1652.32 227.555 1644.88 233.664C1637.42 239.792 1627.95 244.182 1618.9 245.063C1614.66 245.476 1612.41 246.206 1611.45 246.835C1611.38 246.884 1611.31 246.928 1611.27 246.966C1611.74 247.511 1612.99 248.315 1615.15 249.017C1617.28 249.708 1620 250.205 1622.96 250.304C1629.03 250.505 1635.83 249.794 1642.97 246.689C1650.11 243.585 1657.7 238.04 1665.26 228.409C1672.56 219.113 1674.35 205.858 1674.05 193.877C1673.79 183.081 1671.84 173.684 1671.04 169.806C1670.95 169.405 1670.88 169.064 1670.83 168.785L1670.35 166.394H1672.79H1710.87C1712.96 166.394 1715.15 167.249 1717.15 168.53C1719.19 169.829 1721.19 171.66 1722.95 173.847C1726.47 178.206 1729.2 184.191 1729.2 190.614V190.62L1729.06 238.457L1654.29 168.394ZM2435.71 325.661L2427.59 313.748L2166.3 44.7259L2166.3 44.7092C2166.31 44.6931 2166.31 44.6666 2166.32 44.6301C2166.34 44.557 2166.37 44.4437 2166.42 44.2928C2166.5 43.9911 2166.64 43.5395 2166.83 42.9594C2167.2 41.7988 2167.8 40.1266 2168.66 38.1134C2170.37 34.0822 2173.14 28.7123 2177.32 23.3511C2185.65 12.6705 2199.61 2 2222.34 2H2574.17C2582.54 2 2593.96 4.11229 2603.75 6.96777C2608.63 8.39202 2613.04 9.98159 2616.4 11.548C2618.08 12.3321 2619.46 13.0913 2620.49 13.7975C2621.57 14.5327 2622.1 15.0951 2622.29 15.4276L2624.22 18.7558L2625.84 15.2592C2626.98 12.7795 2629.08 11.2692 2631.73 10.3617C2634.42 9.44273 2637.52 9.20125 2640.31 9.20125C2646.07 9.20125 2746.25 8.00875 2796.57 2.98475L2796.57 2.98467C2798.44 2.7967 2799.96 3.37003 2801.29 4.54842C2802.68 5.77872 2803.88 7.7029 2804.89 10.194C2806.91 15.1781 2807.88 21.8229 2808.26 27.7209C2812.95 101.111 2826.22 360.061 2826.22 384.989C2826.22 397.395 2825.06 407.139 2823.19 413.746C2822.25 417.06 2821.17 419.466 2820.05 421.013C2818.93 422.571 2817.97 423.006 2817.28 423.035C2817.28 423.035 2817.25 423.036 2817.18 423.031C2817.12 423.025 2817.02 423.015 2816.9 422.997C2816.67 422.962 2816.36 422.902 2815.97 422.813C2815.19 422.634 2814.19 422.358 2812.96 421.99C2810.51 421.253 2807.29 420.181 2803.42 418.874C2802.06 418.415 2800.63 417.928 2799.13 417.417C2792.1 415.029 2783.57 412.13 2774.33 409.227C2751.95 402.201 2725.06 395.044 2704.69 395.044H2634.96L2631.68 391.671L2631.09 391.065H2630.25H2481.42H2481.41C2479.55 391.069 2477.72 391.459 2476.02 392.211L2476.01 392.215L2476 392.219L2462.89 398.187L2462.88 398.188C2461.62 398.767 2460.23 399.044 2458.84 398.999C2457.45 398.954 2456.09 398.588 2454.86 397.928L2454.85 397.923L2442.94 391.597L2442.94 391.594C2441.47 390.821 2440.24 389.662 2439.38 388.241C2438.52 386.82 2438.06 385.191 2438.05 383.527V333.048V333.04L2438.05 333.031C2438.03 330.397 2437.21 327.83 2435.71 325.667L2435.72 325.675L2434.07 326.802L2435.71 325.661ZM1611.13 246.78C1611.13 246.781 1611.14 246.783 1611.14 246.785C1611.13 246.779 1611.13 246.778 1611.13 246.78ZM1611.1 247.124C1611.1 247.128 1611.1 247.13 1611.1 247.13C1611.1 247.13 1611.1 247.128 1611.1 247.124ZM2072.77 257.043L2072.77 257.042C2079.3 239.02 2072.02 215.348 2055.2 194.803C2038.29 174.164 2011.46 156.259 1977.93 149.662C1944.63 143.111 1916.95 144.688 1896.33 153.002C1875.63 161.344 1862.1 176.456 1857.3 196.657C1849.7 228.632 1868.91 272.494 1914.87 294.705L1914.88 294.705C1965.29 319.041 2001.62 318.595 2027.04 307.368C2052.41 296.165 2066.47 274.422 2072.77 257.043Z" stroke="#312F3D" stroke-opacity="0.5" stroke-width="4"/>
<mask id="path-2-inside-1_0_2387" fill="white">
<path d="M3654.27 612.632V599.807C3654.25 598.587 3653.97 597.385 3653.43 596.29C3652.89 595.194 3652.11 594.233 3651.15 593.476L3644.11 588.044C3642.69 586.961 3640.95 586.372 3639.16 586.37H3618.68C3616.81 586.363 3614.99 587.03 3613.57 588.249L3609.84 591.393C3609.14 591.979 3608.54 592.684 3608.08 593.476H3607.59H3545.8L3538.22 585.063H3536.71C3542.93 582.692 3547.98 578.006 3550.8 571.993L3666.22 570.645V540.012C3666.23 538.877 3665.93 537.76 3665.37 536.774C3664.8 535.788 3663.99 534.967 3663.01 534.392C3662.02 533.818 3660.91 533.51 3659.77 533.5C3658.63 533.49 3657.51 533.778 3656.52 534.335L3651.15 538.868C3650.31 539.571 3649.63 540.453 3649.17 541.449C3648.71 542.445 3648.48 543.531 3648.49 544.628V556.227L3553.13 558.555C3552.49 552.225 3549.52 546.356 3544.79 542.086C3540.06 537.815 3533.92 535.446 3527.54 535.438C3520.92 535.452 3514.57 538.004 3509.79 542.567C3505.01 547.129 3502.17 553.352 3501.86 559.944L3448.88 561.251L3446.71 559.454H3397.9L3355.07 567.173H3294.1C3274.94 567.173 3269.29 593.803 3269.29 593.803H3233.54C3224.37 588.494 3076.35 590.863 2933.33 593.803C2790.3 596.744 2668.89 604.954 2668.89 604.954V609.651C2668.89 609.651 2638.51 609.12 2626.15 609.651C2613.78 610.182 2612.31 633.871 2612.31 633.871L2516.7 636.158V640.733L2245.59 644.041C2243.96 644.067 2242.37 644.552 2241 645.441C2239.63 646.33 2238.54 647.586 2237.85 649.065L2202.27 725.524C2200.48 729.42 2197.78 732.836 2194.41 735.489L2175.53 750.438C2172.47 752.858 2168.92 754.599 2165.13 755.544L2079.6 776.741V785.237L1746.25 790.424V768.082L1681.35 660.419V607.812C1681.35 574.566 1635.9 573.341 1635.9 573.341L1634.51 568.97C1634.25 568.116 1633.7 567.38 1632.95 566.888C1632.2 566.396 1631.31 566.179 1630.42 566.275L1574.65 570.114C1573.89 570.166 1573.19 570.504 1572.68 571.059C1572.17 571.614 1571.89 572.343 1571.9 573.095V794.672L1563.71 793.61L1421.45 792.997C1419.7 792.983 1417.99 793.575 1416.62 794.672L1356.64 842.051C1355.13 843.231 1354.13 844.928 1353.82 846.81C1353.51 848.693 1353.91 850.622 1354.96 852.221L1366.54 869.865C1367.25 870.936 1368.22 871.812 1369.36 872.412C1370.5 873.012 1371.77 873.315 1373.05 873.295L1571.78 871.825V908.911L1603.19 908.053C1604.04 908.048 1604.87 908.31 1605.57 908.8C1606.27 909.291 1606.79 909.986 1607.08 910.79L1609.16 916.957L1629.64 915.977C1630.61 915.963 1631.56 916.297 1632.31 916.918C1633.06 917.54 1633.57 918.408 1633.73 919.367L1635.12 928.475L1689.01 927.331V915.814L2079.68 911.975V929.211H2158.46V910.382L2605.76 903.397L2621.44 919.735H2673.24C2673.93 922.652 2675.29 925.369 2677.22 927.672C2679.14 929.976 2681.58 931.802 2684.33 933.009C2694.4 938.4 3231.66 968.502 3231.66 968.502C3231.66 968.502 3306.3 1003.99 3394.26 1001.91C3482.21 999.829 3519.84 974.057 3519.84 974.057V955.963L3772.93 963.356V610.917L3654.27 612.632ZM1693.6 762.569C1692.71 764.096 1691.44 765.364 1689.91 766.246C1688.38 767.128 1686.64 767.592 1684.87 767.592H1604.05C1601.37 767.582 1598.8 766.515 1596.91 764.626C1595.01 762.736 1593.94 760.176 1593.93 757.504V725.646C1593.94 722.978 1595.01 720.422 1596.91 718.539C1598.8 716.656 1601.37 715.599 1604.05 715.599H1666.86C1668.65 715.601 1670.4 716.075 1671.95 716.971C1673.49 717.868 1674.77 719.155 1675.66 720.704L1693.68 752.562C1694.54 754.092 1694.99 755.821 1694.97 757.576C1694.96 759.332 1694.48 761.053 1693.6 762.569ZM2079.68 887.754L1694.99 892.737V878.81L1742.12 876.563V869.375L2079.68 865.29V887.754ZM2598.3 881.791L2158.99 887.754V871.866L2290.02 871.866V862.635L2559.73 859.205V869.334H2598.47L2598.3 881.791ZM2617.88 749.825H2559.57V777.722L2289.86 781.806V743.209L2523.54 739.778V743.862L2610.75 742.596L2617.88 746.68V749.825ZM3473 575.873C3470.25 575.247 3467.64 574.125 3465.3 572.564L3504.53 572.074C3506.32 575.685 3508.94 578.82 3512.18 581.223C3495.85 578.977 3477.09 576.404 3473 575.914V575.873Z"/>
</mask>
<path d="M3654.27 612.632V599.807C3654.25 598.587 3653.97 597.385 3653.43 596.29C3652.89 595.194 3652.11 594.233 3651.15 593.476L3644.11 588.044C3642.69 586.961 3640.95 586.372 3639.16 586.37H3618.68C3616.81 586.363 3614.99 587.03 3613.57 588.249L3609.84 591.393C3609.14 591.979 3608.54 592.684 3608.08 593.476H3607.59H3545.8L3538.22 585.063H3536.71C3542.93 582.692 3547.98 578.006 3550.8 571.993L3666.22 570.645V540.012C3666.23 538.877 3665.93 537.76 3665.37 536.774C3664.8 535.788 3663.99 534.967 3663.01 534.392C3662.02 533.818 3660.91 533.51 3659.77 533.5C3658.63 533.49 3657.51 533.778 3656.52 534.335L3651.15 538.868C3650.31 539.571 3649.63 540.453 3649.17 541.449C3648.71 542.445 3648.48 543.531 3648.49 544.628V556.227L3553.13 558.555C3552.49 552.225 3549.52 546.356 3544.79 542.086C3540.06 537.815 3533.92 535.446 3527.54 535.438C3520.92 535.452 3514.57 538.004 3509.79 542.567C3505.01 547.129 3502.17 553.352 3501.86 559.944L3448.88 561.251L3446.71 559.454H3397.9L3355.07 567.173H3294.1C3274.94 567.173 3269.29 593.803 3269.29 593.803H3233.54C3224.37 588.494 3076.35 590.863 2933.33 593.803C2790.3 596.744 2668.89 604.954 2668.89 604.954V609.651C2668.89 609.651 2638.51 609.12 2626.15 609.651C2613.78 610.182 2612.31 633.871 2612.31 633.871L2516.7 636.158V640.733L2245.59 644.041C2243.96 644.067 2242.37 644.552 2241 645.441C2239.63 646.33 2238.54 647.586 2237.85 649.065L2202.27 725.524C2200.48 729.42 2197.78 732.836 2194.41 735.489L2175.53 750.438C2172.47 752.858 2168.92 754.599 2165.13 755.544L2079.6 776.741V785.237L1746.25 790.424V768.082L1681.35 660.419V607.812C1681.35 574.566 1635.9 573.341 1635.9 573.341L1634.51 568.97C1634.25 568.116 1633.7 567.38 1632.95 566.888C1632.2 566.396 1631.31 566.179 1630.42 566.275L1574.65 570.114C1573.89 570.166 1573.19 570.504 1572.68 571.059C1572.17 571.614 1571.89 572.343 1571.9 573.095V794.672L1563.71 793.61L1421.45 792.997C1419.7 792.983 1417.99 793.575 1416.62 794.672L1356.64 842.051C1355.13 843.231 1354.13 844.928 1353.82 846.81C1353.51 848.693 1353.91 850.622 1354.96 852.221L1366.54 869.865C1367.25 870.936 1368.22 871.812 1369.36 872.412C1370.5 873.012 1371.77 873.315 1373.05 873.295L1571.78 871.825V908.911L1603.19 908.053C1604.04 908.048 1604.87 908.31 1605.57 908.8C1606.27 909.291 1606.79 909.986 1607.08 910.79L1609.16 916.957L1629.64 915.977C1630.61 915.963 1631.56 916.297 1632.31 916.918C1633.06 917.54 1633.57 918.408 1633.73 919.367L1635.12 928.475L1689.01 927.331V915.814L2079.68 911.975V929.211H2158.46V910.382L2605.76 903.397L2621.44 919.735H2673.24C2673.93 922.652 2675.29 925.369 2677.22 927.672C2679.14 929.976 2681.58 931.802 2684.33 933.009C2694.4 938.4 3231.66 968.502 3231.66 968.502C3231.66 968.502 3306.3 1003.99 3394.26 1001.91C3482.21 999.829 3519.84 974.057 3519.84 974.057V955.963L3772.93 963.356V610.917L3654.27 612.632ZM1693.6 762.569C1692.71 764.096 1691.44 765.364 1689.91 766.246C1688.38 767.128 1686.64 767.592 1684.87 767.592H1604.05C1601.37 767.582 1598.8 766.515 1596.91 764.626C1595.01 762.736 1593.94 760.176 1593.93 757.504V725.646C1593.94 722.978 1595.01 720.422 1596.91 718.539C1598.8 716.656 1601.37 715.599 1604.05 715.599H1666.86C1668.65 715.601 1670.4 716.075 1671.95 716.971C1673.49 717.868 1674.77 719.155 1675.66 720.704L1693.68 752.562C1694.54 754.092 1694.99 755.821 1694.97 757.576C1694.96 759.332 1694.48 761.053 1693.6 762.569ZM2079.68 887.754L1694.99 892.737V878.81L1742.12 876.563V869.375L2079.68 865.29V887.754ZM2598.3 881.791L2158.99 887.754V871.866L2290.02 871.866V862.635L2559.73 859.205V869.334H2598.47L2598.3 881.791ZM2617.88 749.825H2559.57V777.722L2289.86 781.806V743.209L2523.54 739.778V743.862L2610.75 742.596L2617.88 746.68V749.825ZM3473 575.873C3470.25 575.247 3467.64 574.125 3465.3 572.564L3504.53 572.074C3506.32 575.685 3508.94 578.82 3512.18 581.223C3495.85 578.977 3477.09 576.404 3473 575.914V575.873Z" stroke="#312F3D" stroke-opacity="0.5" stroke-width="8" mask="url(#path-2-inside-1_0_2387)"/>
<mask id="path-3-inside-2_0_2387" fill="white">
<path fill-rule="evenodd" clip-rule="evenodd" d="M1256.38 700.422H1152.38C1152.3 697.845 1151.22 695.399 1149.36 693.602C1147.51 691.804 1145.02 690.794 1142.43 690.785C1139.84 690.784 1137.34 691.789 1135.48 693.588C1133.61 695.387 1132.52 697.838 1132.44 700.422H1120.32C1120.24 697.845 1119.16 695.399 1117.31 693.602C1115.45 691.804 1112.96 690.794 1110.37 690.785C1107.78 690.784 1105.28 691.789 1103.42 693.588C1101.55 695.387 1100.47 697.838 1100.39 700.422H1088.27C1088.19 697.838 1087.1 695.387 1085.23 693.588C1083.37 691.789 1080.87 690.784 1078.28 690.785C1075.69 690.794 1073.2 691.804 1071.35 693.602C1069.49 695.399 1068.41 697.845 1068.33 700.422H1056.25C1056.17 697.838 1055.08 695.387 1053.21 693.588C1051.35 691.789 1048.85 690.784 1046.26 690.785C1043.67 690.784 1041.18 691.791 1039.32 693.591C1037.46 695.391 1036.38 697.841 1036.31 700.422H1024.19C1024.11 697.838 1023.02 695.387 1021.16 693.588C1019.29 691.789 1016.8 690.784 1014.2 690.785C1011.6 690.784 1009.11 691.789 1007.24 693.588C1005.38 695.387 1004.29 697.838 1004.21 700.422H992.093C992.013 697.845 990.93 695.399 989.074 693.602C987.217 691.804 984.732 690.794 982.142 690.785C979.546 690.784 977.051 691.789 975.186 693.588C973.322 695.387 972.234 697.838 972.154 700.422H843.65L866.261 768.495C866.261 768.495 850.039 779.751 847.212 781.64L838.694 787.923C837.751 788.614 836.613 788.991 835.442 789.002C834.359 789.002 833.3 788.685 832.397 788.088C831.495 787.491 830.79 786.642 830.37 785.648C830.37 785.648 812.599 741.859 802.61 729.216C795.757 719.655 786.08 712.46 774.927 708.632L766.332 705.664C761.896 704.152 757.236 703.396 752.548 703.429L723.859 701.424C723.469 698.809 722.147 696.42 720.136 694.694C718.125 692.967 715.557 692.018 712.902 692.019C710.231 692.03 707.653 692.998 705.641 694.747C703.629 696.495 702.317 698.907 701.944 701.54L694.201 701.887L125.558 696.49C124.536 696.491 123.524 696.29 122.581 695.9C121.637 695.51 120.781 694.937 120.06 694.216L109.064 683.269V670.51H96.4426L86.6472 660.757V647.999H73.8317L64.0361 638.246V625.487H51.2206L41.4252 615.735V602.976H28.6098L18.8142 593.224V580.465H5.9987L2.35925 576.841C1.31498 575.836 0.576185 574.558 0.227007 573.154C-0.122171 571.749 -0.0676779 570.276 0.384628 568.901L20.2854 505.685C20.7929 503.949 21.8969 502.446 23.4043 501.439C24.9117 500.431 26.7267 499.983 28.5323 500.173L661.794 554.138C661.835 557.052 663.029 559.832 665.117 561.874C667.205 563.917 670.018 565.057 672.945 565.046C675.737 565.035 678.422 563.978 680.467 562.085C682.512 560.193 683.766 557.603 683.979 554.832L692.188 554.408C697.266 552.689 701.877 549.826 705.661 546.043L709.301 542.458C721.78 530.024 729.574 513.688 731.37 496.202C732.43 485.815 731.35 475.322 728.195 465.365L721.032 442.931C720.816 442.178 720.881 441.372 721.216 440.664C721.55 439.955 722.132 439.391 722.852 439.076L726.143 437.65L749.373 427.319C749.762 427.147 750.183 427.057 750.609 427.056C751.035 427.055 751.457 427.143 751.847 427.314C752.237 427.484 752.587 427.734 752.874 428.047C753.162 428.36 753.38 428.729 753.516 429.131L774.888 493.504C778.253 499.198 782.99 503.968 788.672 507.381C825.608 529.468 854.143 525.883 877.257 523.377C904.359 520.409 958.835 501.252 958.835 422C1090.45 469.063 1181.91 476.126 1256.38 476.063V700.422ZM40.239 532.527C44.3632 528.421 49.9567 526.114 55.7893 526.114C61.6218 526.114 67.2156 528.421 71.3398 532.527C75.464 536.633 77.781 542.202 77.781 548.009C77.781 553.815 75.464 559.384 71.3398 563.49C67.2156 567.596 61.6218 569.903 55.7893 569.903C49.9599 569.893 44.3723 567.583 40.2503 563.479C36.1283 559.375 33.808 553.812 33.7978 548.009C33.7978 542.202 36.1147 536.633 40.239 532.527Z"/>
</mask>
<path fill-rule="evenodd" clip-rule="evenodd" d="M1256.38 700.422H1152.38C1152.3 697.845 1151.22 695.399 1149.36 693.602C1147.51 691.804 1145.02 690.794 1142.43 690.785C1139.84 690.784 1137.34 691.789 1135.48 693.588C1133.61 695.387 1132.52 697.838 1132.44 700.422H1120.32C1120.24 697.845 1119.16 695.399 1117.31 693.602C1115.45 691.804 1112.96 690.794 1110.37 690.785C1107.78 690.784 1105.28 691.789 1103.42 693.588C1101.55 695.387 1100.47 697.838 1100.39 700.422H1088.27C1088.19 697.838 1087.1 695.387 1085.23 693.588C1083.37 691.789 1080.87 690.784 1078.28 690.785C1075.69 690.794 1073.2 691.804 1071.35 693.602C1069.49 695.399 1068.41 697.845 1068.33 700.422H1056.25C1056.17 697.838 1055.08 695.387 1053.21 693.588C1051.35 691.789 1048.85 690.784 1046.26 690.785C1043.67 690.784 1041.18 691.791 1039.32 693.591C1037.46 695.391 1036.38 697.841 1036.31 700.422H1024.19C1024.11 697.838 1023.02 695.387 1021.16 693.588C1019.29 691.789 1016.8 690.784 1014.2 690.785C1011.6 690.784 1009.11 691.789 1007.24 693.588C1005.38 695.387 1004.29 697.838 1004.21 700.422H992.093C992.013 697.845 990.93 695.399 989.074 693.602C987.217 691.804 984.732 690.794 982.142 690.785C979.546 690.784 977.051 691.789 975.186 693.588C973.322 695.387 972.234 697.838 972.154 700.422H843.65L866.261 768.495C866.261 768.495 850.039 779.751 847.212 781.64L838.694 787.923C837.751 788.614 836.613 788.991 835.442 789.002C834.359 789.002 833.3 788.685 832.397 788.088C831.495 787.491 830.79 786.642 830.37 785.648C830.37 785.648 812.599 741.859 802.61 729.216C795.757 719.655 786.08 712.46 774.927 708.632L766.332 705.664C761.896 704.152 757.236 703.396 752.548 703.429L723.859 701.424C723.469 698.809 722.147 696.42 720.136 694.694C718.125 692.967 715.557 692.018 712.902 692.019C710.231 692.03 707.653 692.998 705.641 694.747C703.629 696.495 702.317 698.907 701.944 701.54L694.201 701.887L125.558 696.49C124.536 696.491 123.524 696.29 122.581 695.9C121.637 695.51 120.781 694.937 120.06 694.216L109.064 683.269V670.51H96.4426L86.6472 660.757V647.999H73.8317L64.0361 638.246V625.487H51.2206L41.4252 615.735V602.976H28.6098L18.8142 593.224V580.465H5.9987L2.35925 576.841C1.31498 575.836 0.576185 574.558 0.227007 573.154C-0.122171 571.749 -0.0676779 570.276 0.384628 568.901L20.2854 505.685C20.7929 503.949 21.8969 502.446 23.4043 501.439C24.9117 500.431 26.7267 499.983 28.5323 500.173L661.794 554.138C661.835 557.052 663.029 559.832 665.117 561.874C667.205 563.917 670.018 565.057 672.945 565.046C675.737 565.035 678.422 563.978 680.467 562.085C682.512 560.193 683.766 557.603 683.979 554.832L692.188 554.408C697.266 552.689 701.877 549.826 705.661 546.043L709.301 542.458C721.78 530.024 729.574 513.688 731.37 496.202C732.43 485.815 731.35 475.322 728.195 465.365L721.032 442.931C720.816 442.178 720.881 441.372 721.216 440.664C721.55 439.955 722.132 439.391 722.852 439.076L726.143 437.65L749.373 427.319C749.762 427.147 750.183 427.057 750.609 427.056C751.035 427.055 751.457 427.143 751.847 427.314C752.237 427.484 752.587 427.734 752.874 428.047C753.162 428.36 753.38 428.729 753.516 429.131L774.888 493.504C778.253 499.198 782.99 503.968 788.672 507.381C825.608 529.468 854.143 525.883 877.257 523.377C904.359 520.409 958.835 501.252 958.835 422C1090.45 469.063 1181.91 476.126 1256.38 476.063V700.422ZM40.239 532.527C44.3632 528.421 49.9567 526.114 55.7893 526.114C61.6218 526.114 67.2156 528.421 71.3398 532.527C75.464 536.633 77.781 542.202 77.781 548.009C77.781 553.815 75.464 559.384 71.3398 563.49C67.2156 567.596 61.6218 569.903 55.7893 569.903C49.9599 569.893 44.3723 567.583 40.2503 563.479C36.1283 559.375 33.808 553.812 33.7978 548.009C33.7978 542.202 36.1147 536.633 40.239 532.527Z" stroke="#312F3D" stroke-opacity="0.5" stroke-width="8" mask="url(#path-3-inside-2_0_2387)"/>
</svg>
