<svg width="24" height="24" viewBox="0 0 24 24" fill="none" xmlns="http://www.w3.org/2000/svg">
<g id="Group 482364">
<circle id="Ellipse 379" cx="12" cy="12" r="10.5625" transform="matrix(4.37114e-08 -1 -1 -4.37114e-08 24 24)" stroke="#1C1A24" stroke-width="2.875"/>
<g id="Ellipse 380">
<mask id="path-2-inside-1_0_2605" fill="white">
<path d="M20.4853 20.4853C22.1635 18.8071 23.3064 16.6689 23.7694 14.3411C24.2324 12.0133 23.9948 9.60051 23.0866 7.40779C22.1783 5.21508 20.6402 3.34094 18.6668 2.02236C16.6934 0.703785 14.3734 -2.32814e-06 12 -5.24537e-07L12 12L20.4853 20.4853Z"/>
</mask>
<path d="M20.4853 20.4853C22.1635 18.8071 23.3064 16.6689 23.7694 14.3411C24.2324 12.0133 23.9948 9.60051 23.0866 7.40779C22.1783 5.21508 20.6402 3.34094 18.6668 2.02236C16.6934 0.703785 14.3734 -2.32814e-06 12 -5.24537e-07L12 12L20.4853 20.4853Z" stroke="#806CF5" stroke-width="5.75" mask="url(#path-2-inside-1_0_2605)"/>
</g>
<circle id="Ellipse 381" cx="12" cy="11.9066" r="9.12494" fill="#100F14"/>
</g>
</svg>
