<svg width="528" height="376" viewBox="0 0 528 376" fill="none" xmlns="http://www.w3.org/2000/svg">
<g clip-path="url(#clip0_0_2663)">
<rect x="235.601" y="121.214" width="157.078" height="157.078" rx="39.3026" transform="rotate(60 235.601 121.214)" fill="white"/>
<mask id="mask0_0_2663" style="mask-type:alpha" maskUnits="userSpaceOnUse" x="118" y="139" width="178" height="179">
<rect x="233.98" y="127.262" width="148.223" height="148.223" rx="34.0608" transform="rotate(60 233.98 127.262)" fill="#D9D9D9"/>
</mask>
<g mask="url(#mask0_0_2663)">
<rect x="232.94" y="131.141" width="142.544" height="142.544" rx="33.1008" transform="rotate(60 232.94 131.141)" stroke="#030826" stroke-width="4.48"/>
<path d="M197.991 162.874L202.2 163.343C205.004 164.79 207.647 166.657 210.003 168.702C210.447 172.161 211.479 175.905 209.856 179.213C208.695 180.047 207.22 180.278 205.884 180.72C205.887 182.065 205.961 183.408 206.026 184.751C208.449 184.821 210.849 184.465 213.258 184.282C213.735 182.949 213.981 181.469 215.001 180.405C215.09 181.355 215.141 182.31 215.159 183.266C216.341 184.123 217.452 185.275 219.038 185.289C228.925 186.4 238.822 187.466 248.702 188.6C249.799 188.638 250.192 189.822 250.876 190.484C251.128 188.437 251.347 186.387 251.669 184.348C251.96 184.39 252.543 184.464 252.835 184.501C252.695 186.309 252.291 188.134 252.609 189.947C253.146 190.132 253.707 190.232 254.269 190.365C254.219 191.071 254.164 191.776 254.128 192.489C257.155 192.915 260.203 193.454 263.273 193.285C265.331 193.212 267.362 193.643 269.405 193.875C269.359 194.582 269.348 195.288 269.397 196C266.853 195.898 264.282 195.779 261.818 195.091C257.85 194.164 253.741 194.549 249.749 193.88C249.553 194.398 249.366 194.917 249.18 195.436C245.314 195.047 241.46 194.552 237.602 194.141C236.324 193.966 234.886 194.08 233.959 195.042C232.67 196.299 231.164 197.326 229.913 198.62C229.271 201.177 230.031 203.811 230.351 206.368C229.407 206.589 228.459 206.79 227.528 207.021C226.297 209.727 226.259 213.36 223.407 215.034C221.834 215.938 220.4 217.122 218.653 217.695C217.384 218.093 216.146 217.393 214.951 217.083C210.491 215.906 207.037 212.767 203.196 210.441C202.813 211.482 202.399 212.506 201.984 213.535C203.126 214.448 204.639 215.287 204.874 216.857C205.247 219.16 204.468 221.446 204.125 223.71C203.699 225.775 203.404 227.868 202.969 229.932C202.545 231.936 201.15 233.544 199.741 234.983C198.618 234.578 197.524 234.126 196.418 233.705C194.902 236.141 195.567 239.453 197.378 241.595C202.02 247.77 204.072 255.279 205.966 262.585C206.258 264.115 207.718 265.167 207.808 266.754C208.067 268.457 208.508 270.186 208.169 271.907C207.626 274.931 207.061 277.952 206.407 280.954C205.942 283.159 204.846 285.288 205.095 287.596C205.262 289.47 205.277 291.435 204.389 293.155C203.21 295.308 202.945 297.777 202.664 300.169C202.53 301.75 202.427 303.493 203.408 304.867C204.558 306.61 205.669 308.408 207.104 309.945C208.928 311.419 211.63 311.729 213.042 313.724C213.44 314.773 212.949 315.891 212.816 316.951C207.633 317.136 202.292 316.597 197.511 314.491C194.813 313.293 191.559 314.47 189.052 312.674C189.545 309.57 190.657 306.61 192.112 303.822C192.82 301.701 192.563 299.392 192.761 297.186C192.94 295.28 192.124 293.486 191.942 291.615C191.273 287.567 191.413 283.447 191.676 279.373C191.653 277.356 193.548 276.046 193.836 274.11C194.39 272.427 194.319 270.628 193.385 269.082C191.494 268.815 188.883 269.017 188.04 266.909C186.175 263.454 184.377 259.96 182.516 256.505C181.898 255.036 180.007 255.156 178.803 254.407C177.782 253.261 177.377 251.755 176.816 250.376C176.236 251.818 175.504 253.249 174.249 254.249C172.274 255.796 171.363 258.151 170.194 260.263C169.366 261.79 168.599 263.365 168.173 265.049C167.779 266.312 167.554 267.817 166.274 268.531C164.388 269.623 163.525 271.723 161.775 272.961C160.466 273.931 159.573 275.353 159.012 276.84C158.731 278.209 158.984 279.656 158.474 280.981C157.55 283.409 155.892 285.457 154.594 287.689C153.676 289.257 153.096 290.993 152.11 292.525C151.447 293.601 150.031 293.815 149.172 294.682C146.578 298.106 145.389 302.448 145.707 306.694C146.149 308.414 146.413 310.192 145.83 311.923C144.468 311.953 143.111 312.02 141.751 311.989L137.588 311.525C136.53 311.184 135.432 310.894 134.499 310.288C134.011 307.949 134.409 305.491 135.325 303.304C136.679 300.012 137.945 296.688 139.207 293.367C139.987 291.756 138.747 290.096 139.061 288.433C139.195 285.945 140.991 284.08 142.355 282.143C143.624 280.428 143.493 278.176 144.448 276.324C146.588 272.31 150.129 269.244 152.469 265.355C153.234 263.751 152.805 261.908 153.11 260.202C153.614 256.959 154.632 253.816 155.564 250.673C155.895 249.458 156.45 248.199 156.096 246.927C155.735 245.416 155.54 243.831 155.92 242.306C156.295 240.906 155.582 239.393 156.283 238.062C156.702 236.913 157.887 236.37 158.859 235.734C159.56 230.9 158.284 225.929 159.581 221.174C160.564 220.223 162 220.002 163.269 219.608C161.534 219.052 159.799 218.491 158.076 217.913C158.223 215.947 158.712 214.039 159.345 212.174C160.327 209.264 160.313 206.141 161.132 203.194C161.292 202.44 162.173 202.278 162.85 202.325C164.473 202.39 166.106 202.497 167.729 202.301C167.681 198.458 167.721 194.545 169.018 190.87C170.361 186.512 172.908 182.227 177.043 179.897C179.874 178.454 183.797 177.854 186.321 180.233C186.564 180.107 187.049 179.858 187.292 179.736C186.16 175.344 187.056 170.513 190.022 167.001C191.954 164.597 194.999 163.447 197.991 162.874ZM220.615 194.746C220.351 195.833 219.881 196.888 218.729 197.294C220.181 197.363 221.64 197.53 223.096 197.386C223.153 196.573 223.214 195.766 223.271 194.954C222.379 194.873 221.496 194.802 220.615 194.746ZM217.283 197.529C217.143 197.671 216.859 197.947 216.72 198.089C216.779 199.608 217.787 200.958 218.406 202.339C219.687 200.937 220.982 199.537 222.216 198.092C220.581 197.836 218.94 197.546 217.283 197.529Z" fill="#030826"/>
</g>
<path d="M118.026 167.366L118.026 167.366C117.094 166.71 115.803 166.972 115.2 167.939L97.0798 197.006C96.1447 198.506 97.4898 200.388 99.2115 199.989L98.8042 198.232L99.2115 199.989L114.095 196.538C112.681 204.357 108.767 211.576 102.836 217.005C90.3672 228.393 71.9031 229.842 57.8806 220.553C56.9818 219.958 55.7504 220.184 55.1349 221.103L48.8819 230.44C48.2679 231.357 48.5219 232.592 49.4333 233.197C69.2993 246.384 95.4558 244.351 113.105 228.219L113.105 228.219C117.037 224.624 120.343 220.468 122.955 215.949C127 208.951 129.291 201.046 129.747 192.892L143.878 189.606C145.548 189.218 145.973 187.038 144.571 186.052L118.026 167.366ZM143.061 186.093L143.368 187.41L143.061 186.093L143.059 186.093C143.06 186.093 143.061 186.093 143.061 186.093ZM53.3388 162.932L53.3415 162.93C59.3808 157.38 67.1103 154.021 75.2882 153.393C83.409 152.769 91.5039 154.874 98.2908 159.371C99.196 159.97 100.426 159.734 101.037 158.82L107.282 149.478L105.783 148.476L107.282 149.478C107.895 148.561 107.64 147.327 106.729 146.722L105.732 148.226L106.729 146.722C86.8426 133.534 60.6894 135.58 43.0653 151.706L43.0648 151.707C33.0597 160.869 27.1328 173.594 26.3805 187.05L12.2881 190.326C10.6187 190.714 10.1935 192.893 11.5948 193.88C11.5948 193.88 11.5948 193.88 11.5948 193.88L38.1357 212.574C39.0675 213.231 40.3595 212.969 40.9621 212.001L59.0741 182.929C60.0089 181.429 58.6626 179.547 56.9406 179.948L42.0632 183.408C43.4833 175.583 47.407 168.362 53.3388 162.932ZM13.6721 190.931C13.6727 190.932 13.6732 190.932 13.6738 190.932L13.6721 190.931L12.8933 192.037L13.6721 190.931ZM57.7578 183.461C57.7569 183.461 57.7559 183.462 57.7549 183.462L57.7578 183.461Z" fill="#00C165" stroke="white" stroke-width="3.60736"/>
<rect x="288.026" y="144.732" width="83.525" height="83.525" rx="21.736" transform="rotate(30 288.026 144.732)" fill="#FF3EC6" stroke="#030826" stroke-width="3.60736"/>
<path d="M325.887 192.146C324.576 190.336 323.958 183.909 322.939 180.944C321.92 177.979 318.041 175.529 313.265 173.314C310.335 171.921 305.645 171.317 302.523 171.043C300.505 170.865 298.471 171.038 296.512 171.554L294.349 172.126C292.388 172.638 290.531 173.487 288.86 174.635C286.281 176.413 282.526 179.256 280.63 181.897C277.563 186.182 275.394 190.224 275.969 193.307C276.543 196.39 279.165 202.284 278.914 204.505C278.662 206.725 278.329 209.571 279.302 210.988C280.275 212.406 282.045 212.301 281.51 214.367C280.976 216.432 281.427 221.334 285.656 222.374C289.241 223.147 292.868 223.713 296.519 224.07L297.508 231.47C301.06 233.146 305.107 233.446 308.867 232.313L313.507 231.093C317.338 230.226 320.712 227.972 322.978 224.764L320.196 217.832C323.202 215.718 326.086 213.435 328.833 210.994C332.002 208.003 329.981 203.51 328.502 201.983C327.023 200.456 328.61 199.676 328.76 197.963C328.911 196.25 327.183 193.966 325.887 192.146ZM287.174 212.273C284.213 210.736 283.11 206.808 283.5 203.783C284.176 198.386 289.642 196.24 290.194 196.033C291.301 195.625 294.287 194.511 296.76 195.968C299.906 197.831 300.438 202.763 299.186 206.109C297.448 210.821 291.342 214.457 287.154 212.286L287.174 212.273ZM311.999 216.637C310.923 217.319 309.254 217.011 308.234 216.081C307.712 215.57 307.369 214.904 307.256 214.182L305.933 214.529C306.187 215.214 306.216 215.963 306.018 216.666C305.615 217.979 304.326 219.103 303.036 219.006C301.013 218.882 300.177 215.862 300.13 215.701C299.132 211.972 302.955 208.526 303.209 208.29L306.544 207.412C306.883 207.484 311.886 208.594 312.872 212.337C312.927 212.5 313.685 215.548 311.98 216.649L311.999 216.637ZM322.513 202.98C319.93 206.93 312.859 206.769 309.004 203.54C306.268 201.246 304.307 196.687 306.129 193.519C307.563 191.02 310.697 190.516 311.876 190.329C312.465 190.235 318.254 189.407 321.524 193.771C323.348 196.219 324.324 200.194 322.513 202.98Z" fill="#030826"/>
<rect x="487.988" y="195.523" width="54.4902" height="54.4902" rx="14.1465" transform="rotate(60.5767 487.988 195.523)" fill="#26FF85" stroke="#030826" stroke-width="2.5"/>
<path d="M493.56 234.724C493.424 233.268 495.214 229.443 495.627 227.435C496.04 225.426 494.671 222.756 492.718 219.919C491.532 218.16 489.092 216.259 487.425 215.066C486.348 214.295 485.145 213.716 483.87 213.355L482.462 212.957C481.187 212.593 479.859 212.453 478.536 212.544C476.492 212.686 473.432 213.038 471.485 213.895C468.333 215.287 465.766 216.842 465.064 218.769C464.362 220.696 463.877 224.888 462.997 226.054C462.116 227.221 460.982 228.713 461.058 229.835C461.135 230.956 462.166 231.487 461.178 232.472C460.19 233.457 458.813 236.367 460.848 238.36C462.61 239.988 464.464 241.514 466.401 242.93L464.496 247.426C465.938 249.551 468.117 251.067 470.612 251.68L473.631 252.536C476.076 253.323 478.726 253.176 481.07 252.124L481.81 247.294C484.206 247.105 486.589 246.778 488.948 246.318C491.728 245.688 492.085 242.485 491.76 241.133C491.435 239.781 492.588 239.87 493.243 238.956C493.897 238.041 493.685 236.18 493.56 234.724ZM465.063 233.177C463.908 231.327 464.594 228.747 465.82 227.174C467.996 224.36 471.788 224.97 472.168 225.037C472.926 225.176 474.979 225.542 475.887 227.185C477.039 229.281 475.697 232.235 473.879 233.703C471.332 235.778 466.684 235.794 465.048 233.178L465.063 233.177ZM477.591 243.894C476.758 243.92 475.921 243.192 475.656 242.329C475.532 241.867 475.561 241.378 475.737 240.934L474.877 240.689C474.791 241.159 474.559 241.59 474.213 241.921C473.549 242.526 472.45 242.73 471.756 242.246C470.658 241.503 471.192 239.525 471.219 239.418C471.898 236.986 475.197 236.318 475.419 236.269L477.588 236.885C477.755 237.038 480.203 239.327 479.513 241.763C479.49 241.873 478.903 243.842 477.576 243.895L477.591 243.894ZM488.056 239.702C485.287 241.067 481.359 238.624 480.262 235.523C479.485 233.321 479.898 230.101 481.978 228.923C483.616 227.993 485.549 228.752 486.275 229.039C486.638 229.182 490.173 230.642 490.563 234.187C490.775 236.173 490.003 238.736 488.056 239.702Z" fill="#030826"/>
<path d="M197.999 31.664C206.482 31.664 213.359 24.7871 213.359 16.304C213.359 7.82094 206.482 0.944031 197.999 0.944031C189.516 0.944031 182.639 7.82094 182.639 16.304C182.639 24.7871 189.516 31.664 197.999 31.664Z" stroke="#26FF85" stroke-width="2.88" stroke-miterlimit="10"/>
<path d="M392.203 174.509C400.686 174.509 407.563 167.632 407.563 159.149C407.563 150.666 400.686 143.789 392.203 143.789C383.72 143.789 376.843 150.666 376.843 159.149C376.843 167.632 383.72 174.509 392.203 174.509Z" stroke="#26FF85" stroke-width="2.88" stroke-miterlimit="10"/>
<path d="M15.9987 304.777C24.4817 304.777 31.3587 297.9 31.3587 289.417C31.3587 280.934 24.4817 274.057 15.9987 274.057C7.51556 274.057 0.638672 280.934 0.638672 289.417C0.638672 297.9 7.51556 304.777 15.9987 304.777Z" stroke="#26FF85" stroke-width="2.88" stroke-miterlimit="10"/>
<path d="M243.999 58.664C252.482 58.664 259.359 51.7871 259.359 43.304C259.359 34.8209 252.482 27.944 243.999 27.944C235.516 27.944 228.639 34.8209 228.639 43.304C228.639 51.7871 235.516 58.664 243.999 58.664Z" stroke="#26FF85" stroke-width="2.88" stroke-miterlimit="10"/>
</g>
<defs>
<clipPath id="clip0_0_2663">
<rect width="526.641" height="374.112" fill="white" transform="translate(0.638672 0.944031)"/>
</clipPath>
</defs>
</svg>
