<svg width="41" height="40" viewBox="0 0 41 40" fill="none" xmlns="http://www.w3.org/2000/svg">
<path d="M27.2025 24.7927C30.4436 22.7653 32.9008 21.2204 33.1126 21.1004C33.7902 20.6899 34.4898 19.6035 33.1126 18.7597C32.668 18.4944 30.274 16.9976 27.2025 15.0674L22.9445 19.9661L27.2025 24.7927Z" fill="#FFD900"/>
<path d="M22.9444 19.9653L9.38657 35.5316C9.70478 35.5796 10.0641 35.4836 10.4877 35.2183C11.377 34.6637 20.8044 28.7988 27.2024 24.7932L22.9444 19.9653Z" fill="#F43249"/>
<path d="M22.9449 19.9652L27.2028 15.0905C27.2028 15.0905 11.4417 5.29199 10.4881 4.71342C10.1288 4.47094 9.72633 4.39892 9.36597 4.47094L22.9449 19.9652Z" fill="#00EE76"/>
<path d="M22.945 19.9647L9.36605 4.47046C8.81497 4.6157 8.34924 5.17027 8.34924 6.30461C8.34924 8.11475 8.34924 32.2 8.34924 33.6968C8.34924 34.7351 8.70961 35.483 9.38713 35.555L22.945 19.9647Z" fill="#00D3FF"/>
</svg>
