<svg width="346" height="345" viewBox="0 0 346 345" fill="none" xmlns="http://www.w3.org/2000/svg">
<path d="M32.7217 294.851L56.1354 318.14" stroke="#FF3EC6" stroke-width="3.0375" stroke-miterlimit="10"/>
<path d="M56.3059 296L56.3059 320.3L32.0059 320.3" stroke="#FF3EC6" stroke-width="3.0375"/>
<path d="M226.722 317.721L250.135 341.01" stroke="#FF3EC6" stroke-width="3.0375" stroke-miterlimit="10"/>
<path d="M250.306 319L250.306 343.3L226.006 343.3" stroke="#FF3EC6" stroke-width="3.0375"/>
<path d="M66.7217 1.51125L90.1355 24.8003" stroke="#FF3EC6" stroke-width="3.0375" stroke-miterlimit="10"/>
<path d="M90.3059 1L90.3059 25.3L66.0059 25.3" stroke="#FF3EC6" stroke-width="3.0375"/>
<path d="M82.7209 70.1229L106.135 93.412" stroke="#FF3EC6" stroke-width="3.0375" stroke-miterlimit="10"/>
<path d="M106.306 70L106.306 94.3L82.0058 94.3" stroke="#FF3EC6" stroke-width="3.0375"/>
<path d="M320.558 21.5132L343.971 44.8022" stroke="#FF3EC6" stroke-width="3.0375" stroke-miterlimit="10"/>
<path d="M344.142 21.1152L344.142 45.4152L319.842 45.4152" stroke="#FF3EC6" stroke-width="3.0375"/>
<path d="M103.96 143.302C114.867 123.735 120.32 113.952 128.315 108.589C135.348 103.872 143.702 101.49 152.18 101.784C161.818 102.119 171.657 107.541 191.334 118.387L219.586 133.96C239.263 144.806 249.102 150.228 254.495 158.179C259.239 165.172 261.634 173.48 261.339 181.91C261.002 191.494 255.549 201.278 244.643 220.844L228.983 248.938C218.076 268.505 212.623 278.288 204.628 283.651C197.595 288.368 189.241 290.751 180.763 290.456C171.125 290.122 161.287 284.699 141.609 273.853L113.357 258.281C93.68 247.435 83.8414 242.012 78.4483 234.061C73.7044 227.068 71.3087 218.761 71.6045 210.33C71.9408 200.746 77.3941 190.962 88.3006 171.396L103.96 143.302Z" fill="white"/>
<mask id="mask0_0_2733" style="mask-type:alpha" maskUnits="userSpaceOnUse" x="76" y="106" width="181" height="180">
<path fill-rule="evenodd" clip-rule="evenodd" d="M131.082 112.212C124.152 116.859 119.426 125.338 109.974 142.296L90.6298 177C81.1775 193.958 76.4513 202.437 76.1599 210.744C75.9035 218.05 77.9798 225.25 82.0912 231.311C86.7652 238.201 95.2919 242.901 112.345 252.301L147.246 271.537C164.299 280.937 172.826 285.637 181.179 285.927C188.526 286.182 195.767 284.117 201.862 280.029C208.791 275.381 213.517 266.902 222.969 249.945L242.313 215.24C251.766 198.282 256.492 189.803 256.783 181.497C257.04 174.191 254.963 166.991 250.852 160.93C246.178 154.04 237.651 149.34 220.598 139.94L185.698 120.703C168.644 111.304 160.117 106.604 151.764 106.314C144.417 106.059 137.177 108.123 131.082 112.212Z" fill="#C3C3C5"/>
</mask>
<g mask="url(#mask0_0_2733)">
<path d="M127.512 213.202C128.221 213.041 128.903 213.558 128.939 214.284L129.335 222.313C129.508 226.682 131.477 228.437 135.242 227.58C136.946 227.191 138.068 226.376 138.607 225.132C139.145 223.889 139.374 222.268 139.292 220.269L138.662 208.645C138.628 206.859 138.211 205.684 137.41 205.12C136.593 204.484 135.332 204.36 133.627 204.749L126.041 206.476C125.331 206.638 124.647 206.118 124.614 205.39L124.051 193.01C124.026 192.445 124.408 191.943 124.959 191.817L132.85 190.02C134.697 189.599 135.851 188.925 136.312 187.999C136.757 187.001 136.939 185.502 136.857 183.504L136.5 176.524C136.25 172.472 134.384 170.842 130.904 171.635C129.199 172.023 128.113 172.831 127.645 174.058C127.233 175.198 127.067 176.768 127.149 178.766L127.442 183.75C127.476 184.32 127.092 184.831 126.535 184.958L113.95 187.825C113.239 187.987 112.555 187.465 112.522 186.737L112.261 180.813C112.137 178.301 112.152 175.906 112.306 173.63C112.515 171.266 113.108 169.114 114.085 167.173C115.134 165.215 116.689 163.516 118.752 162.075C120.815 160.634 123.657 159.501 127.28 158.676L129.091 158.263C137.046 156.451 142.871 156.768 146.567 159.214C150.245 161.588 152.237 166.066 152.54 172.647L152.809 178.749C152.995 182.517 152.403 185.492 151.031 187.672C150.322 188.751 149.562 189.656 148.753 190.386C148.074 190.999 148.256 192.56 149.092 192.933C150.073 193.307 151.005 193.954 151.887 194.874C152.769 195.793 153.503 197.046 154.088 198.631C154.728 200.129 155.121 202.019 155.268 204.302L155.86 217.728C156.033 220.453 155.924 223.093 155.535 225.647C155.2 228.114 154.446 230.378 153.271 232.439C152.097 234.499 150.416 236.302 148.227 237.847C146.022 239.32 143.144 240.461 139.593 241.27L137.142 241.828C133.165 242.734 129.757 243.025 126.918 242.7C124.064 242.304 121.696 241.424 119.816 240.059C117.92 238.623 116.492 236.782 115.532 234.535C114.556 232.217 113.985 229.545 113.818 226.52L113.364 217.416C113.335 216.849 113.718 216.344 114.271 216.218L127.512 213.202Z" fill="#030826"/>
<path d="M187.699 174.164C187.905 178.675 187.206 182.495 185.603 185.625C183.983 188.683 180.794 190.755 176.035 191.839L174.543 192.179C169.571 193.311 165.496 192.969 162.318 191.153C159.124 189.265 157.411 185.845 157.179 180.892L156.538 167.253C156.284 162.529 156.974 158.674 158.61 155.686C160.246 152.698 163.443 150.663 168.202 149.579L169.8 149.215C174.701 148.098 178.705 148.456 181.813 150.289C184.991 152.105 186.704 155.525 186.952 160.55L187.699 174.164ZM215.177 139.551C216.076 139.346 216.847 140.214 216.537 141.083L185.127 229.222C184.993 229.599 184.676 229.88 184.286 229.969L176.974 231.635C176.074 231.84 175.303 230.971 175.614 230.102L207.127 141.939C207.262 141.563 207.579 141.282 207.968 141.193L215.177 139.551ZM173.129 182.526C174.479 182.219 175.384 181.602 175.846 180.675C176.291 179.677 176.477 178.364 176.405 176.737L175.692 162.778C175.675 161.064 175.222 159.897 174.334 159.277C173.445 158.657 172.362 158.493 171.084 158.785C169.734 159.092 168.829 159.709 168.367 160.636C167.906 161.563 167.684 162.884 167.701 164.598L168.415 178.557C168.486 180.184 168.939 181.351 169.772 182.058C170.661 182.678 171.78 182.834 173.129 182.526ZM235.906 203.754C236.111 208.265 235.377 212.093 233.703 215.239C232.083 218.297 228.894 220.369 224.135 221.453L222.643 221.792C217.742 222.909 213.703 222.559 210.525 220.742C207.33 218.855 205.617 215.435 205.386 210.482L204.745 196.843C204.49 192.119 205.181 188.263 206.817 185.276C208.452 182.288 211.65 180.252 216.409 179.168L217.9 178.828C222.801 177.712 226.806 178.07 229.913 179.903C233.091 181.719 234.839 185.131 235.158 190.139L235.906 203.754ZM221.229 212.14C222.65 211.817 223.591 211.191 224.052 210.264C224.497 209.266 224.684 207.954 224.612 206.326L223.898 192.368C223.881 190.653 223.429 189.486 222.54 188.867C221.652 188.247 220.569 188.083 219.29 188.374C216.804 188.94 215.677 190.878 215.907 194.188L216.621 208.147C216.693 209.774 217.146 210.941 217.979 211.648C218.867 212.267 219.951 212.431 221.229 212.14Z" fill="#030826"/>
<path d="M116.145 147.25C120.572 139.308 123.815 133.494 126.75 129.113C129.667 124.758 132.154 122.019 134.974 120.127C140.187 116.63 146.382 114.863 152.671 115.082C156.073 115.2 159.645 116.214 164.441 118.37C169.266 120.539 175.116 123.761 183.102 128.163L215.633 146.093C223.619 150.495 229.467 153.721 233.874 156.64C238.255 159.542 241.01 162.014 242.911 164.817C246.426 169.998 248.199 176.15 247.98 182.392C247.862 185.768 246.844 189.313 244.677 194.081C242.496 198.878 239.256 204.694 234.829 212.636L216.799 244.983C212.372 252.924 209.128 258.739 206.194 263.119C203.276 267.474 200.79 270.213 197.97 272.105C192.756 275.602 186.561 277.369 180.273 277.151C176.871 277.032 173.299 276.018 168.503 273.862C163.678 271.693 157.828 268.471 149.842 264.069L117.311 246.139C109.325 241.737 103.476 238.511 99.0698 235.592C94.6889 232.69 91.9339 230.218 90.0328 227.415C86.5183 222.234 84.7445 216.082 84.9636 209.84C85.082 206.464 86.0994 202.919 88.2672 198.151C90.4479 193.354 93.6876 187.538 98.1144 179.596L116.145 147.25Z" stroke="white" stroke-width="5.346"/>
<path fill-rule="evenodd" clip-rule="evenodd" d="M218.001 144.598L183.101 125.362C174.497 120.619 168.324 117.221 163.262 114.946C158.257 112.696 154.766 111.747 151.578 111.637C145.36 111.421 139.234 113.168 134.077 116.627C131.432 118.401 128.977 121.045 125.932 125.59C122.852 130.188 119.428 136.322 114.659 144.878L95.3144 179.583C90.5454 188.138 87.1284 194.277 84.84 199.31C82.5774 204.287 81.6239 207.759 81.5127 210.929C81.2957 217.112 83.0526 223.204 86.5314 228.332C88.3156 230.962 90.9743 233.404 95.5454 236.432C100.169 239.495 106.338 242.9 114.942 247.642L149.842 266.879C158.446 271.621 164.619 275.019 169.681 277.295C174.686 279.545 178.177 280.493 181.366 280.604C187.583 280.82 193.709 279.073 198.866 275.614C201.511 273.839 203.967 271.196 207.012 266.65C210.091 262.053 213.516 255.918 218.285 247.362L237.629 212.658C242.398 204.102 245.815 197.964 248.103 192.93C250.366 187.954 251.319 184.482 251.431 181.311C251.648 175.129 249.891 169.037 246.412 163.908C244.628 161.278 241.969 158.837 237.398 155.809C232.775 152.746 226.605 149.341 218.001 144.598ZM131.082 112.212C124.152 116.859 119.426 125.338 109.974 142.296L90.6298 177C81.1775 193.958 76.4513 202.437 76.1599 210.744C75.9035 218.05 77.9798 225.25 82.0912 231.311C86.7652 238.201 95.2919 242.901 112.345 252.301L147.246 271.537C164.299 280.937 172.826 285.637 181.179 285.927C188.526 286.182 195.767 284.117 201.862 280.029C208.791 275.381 213.517 266.902 222.969 249.945L242.313 215.24C251.766 198.282 256.492 189.803 256.783 181.497C257.04 174.191 254.963 166.991 250.852 160.93C246.178 154.04 237.651 149.34 220.598 139.94L185.698 120.703C168.644 111.304 160.117 106.604 151.764 106.314C144.417 106.059 137.177 108.123 131.082 112.212Z" fill="#030826"/>
</g>
<g clip-path="url(#clip0_0_2733)">
<path d="M37.4663 134.539C41.888 129.276 45.1046 125.45 47.8012 122.779C50.5063 120.1 52.4283 118.855 54.1884 118.416C57.6943 117.541 61.4049 118.194 64.3977 120.21C65.8994 121.221 67.2775 123.045 68.8997 126.484C70.5168 129.913 72.2266 134.603 74.5755 141.056L85.7265 171.691C88.0387 178.043 89.6271 183.407 90.4743 187.716C91.3362 192.1 91.3701 195.108 90.8517 196.911C89.855 200.379 87.432 203.263 84.1842 204.847C82.5536 205.642 80.2808 205.923 76.4862 205.609C72.7033 205.296 67.7803 204.434 61.0098 203.244L28.8666 197.595C22.096 196.406 17.1739 195.538 13.5118 194.543C9.83798 193.545 7.80009 192.505 6.54198 191.204C4.03518 188.611 2.74863 185.076 3.00198 181.479C3.13376 179.607 4.19781 176.793 6.51269 172.966C8.78784 169.205 12.1214 164.706 16.4742 159.525L37.4663 134.539Z" fill="#FFFF00" stroke="#030826" stroke-width="4.55624"/>
<path d="M68.7214 162.143C68.2804 161.758 67.8185 161.4 67.3381 161.069C67.5236 160.456 67.6767 159.834 67.7967 159.205C68.3797 155.976 67.986 152.651 66.6688 149.678C65.3515 146.706 63.1741 144.23 60.4309 142.585C60.2156 142.459 59.9609 142.422 59.7182 142.481C59.4756 142.541 59.2629 142.692 59.1232 142.905C58.9821 143.117 58.9251 143.376 58.9641 143.628C59.003 143.88 59.1349 144.107 59.3324 144.26C61.2579 145.778 62.5627 147.979 62.9962 150.44C63.4296 152.902 62.9612 155.45 61.6807 157.596C59.5357 154.937 56.5459 153.141 53.2288 152.52C49.9116 151.899 46.4761 152.492 43.517 154.196C43.1014 151.742 43.5813 149.207 44.8649 147.076C46.1485 144.944 48.1461 143.365 50.4766 142.639C50.7151 142.565 50.9179 142.401 51.0437 142.18C51.1695 141.958 51.2088 141.697 51.1535 141.448C51.0958 141.2 50.9492 140.984 50.7427 140.843C50.5362 140.702 50.285 140.646 50.0388 140.687C46.8906 141.25 43.9771 142.792 41.6927 145.104C39.4082 147.416 37.8631 150.386 37.2665 153.613C37.1524 154.24 37.0723 154.872 37.0268 155.507C33.6253 156.341 30.5859 158.327 28.4005 161.145C26.2152 163.962 25.012 167.446 24.9857 171.032C24.9854 171.283 25.0762 171.525 25.2405 171.709C25.4047 171.894 25.6307 172.008 25.8742 172.03C26.1177 172.052 26.3613 171.98 26.5575 171.828C26.7537 171.675 26.8883 171.454 26.9351 171.207C26.9472 171.159 26.9536 171.11 26.954 171.061C27.2928 168.612 28.4884 166.366 30.3164 164.744C32.1444 163.122 34.4791 162.236 36.8821 162.251C35.7248 165.532 35.718 169.114 36.863 172.376C38.0079 175.638 40.2322 178.373 43.1498 180.107C42.2292 180.927 41.1711 181.566 40.0285 181.993C38.3068 182.63 36.4521 182.767 34.6692 182.39C32.8862 182.012 31.2443 181.135 29.9244 179.855C29.7432 179.686 29.5059 179.593 29.2597 179.596C29.0136 179.599 28.7767 179.698 28.5962 179.871C28.4156 180.045 28.3047 180.282 28.2855 180.534C28.2663 180.786 28.3402 181.036 28.4925 181.233C30.5109 183.752 33.2412 185.563 36.3124 186.42C39.3836 187.278 42.6467 187.14 45.6582 186.026C46.2017 185.823 46.735 185.591 47.256 185.332C47.648 185.762 48.0646 186.167 48.5037 186.546C50.9248 188.658 53.9278 189.946 57.1039 190.234C60.28 190.522 63.475 189.796 66.2544 188.156C66.4709 188.028 66.6325 187.82 66.706 187.576C66.7796 187.331 66.7595 187.067 66.6499 186.839C66.5437 186.61 66.3549 186.432 66.1229 186.344C65.891 186.256 65.6339 186.264 65.4056 186.366C63.1386 187.349 60.6051 187.434 58.2982 186.604C55.9913 185.774 54.076 184.088 52.9249 181.875C55.851 181.338 58.5557 179.894 60.675 177.738C62.7942 175.582 64.2264 172.817 64.7788 169.815C64.9214 169.019 65.0052 168.214 65.0295 167.407C66.1539 167.814 67.1962 168.426 68.1072 169.213C69.4973 170.418 70.5307 171.999 71.0925 173.781C71.6542 175.563 71.7222 177.474 71.2888 179.304C71.2305 179.552 71.2659 179.813 71.388 180.034C71.5101 180.255 71.7097 180.419 71.9465 180.493C72.1838 180.569 72.4414 180.548 72.6654 180.433C72.8894 180.318 73.0624 180.119 73.1481 179.878C74.2689 176.793 74.4455 173.439 73.6539 170.268C72.8623 167.096 71.1407 164.26 68.7214 162.143ZM58.1824 161.157C56.1312 162.383 53.7279 162.819 51.4075 162.384C49.0871 161.95 47.003 160.675 45.5326 158.789C47.5681 157.502 49.9881 157.032 52.3247 157.469C54.6612 157.907 56.7484 159.221 58.1824 161.157ZM41.0468 165.453C41.171 164.789 41.3581 164.139 41.6056 163.511C43.6944 164.697 45.2821 166.631 46.0702 168.949C46.843 171.213 46.8101 173.692 45.9773 175.95C44.1721 174.978 42.7215 173.436 41.8362 171.549C40.951 169.662 40.6774 167.528 41.0551 165.457L41.0468 165.453ZM51.7311 176.969C51.7453 175.171 52.2266 173.404 53.1252 171.852C53.4137 171.349 53.7442 170.872 54.1129 170.427C54.5166 169.945 54.9601 169.5 55.4384 169.097C56.789 167.969 58.4028 167.227 60.1154 166.946C60.1248 167.607 60.0682 168.268 59.9465 168.919C59.5716 170.971 58.5758 172.855 57.1017 174.302C55.6276 175.748 53.7507 176.683 51.7395 176.973L51.7311 176.969Z" fill="#030826"/>
</g>
<path d="M275.808 167.349L293.665 196.53L272.91 209.23L264.778 207.996L253.689 203.003L255.054 180.049L275.808 167.349Z" fill="#FF3EC6"/>
<path d="M309.812 141.767C306.277 146.053 299.195 155.294 296.096 159.379L267.966 174.096L257.307 154.207C257.857 146.392 259.375 129.002 261.043 121.961C263.128 113.16 269.181 111.073 271.51 111.195C273.84 111.317 279.385 112.777 279.148 122.064C278.959 129.494 278.217 145.42 277.87 152.454C282.283 147.457 291.754 136.63 294.341 133.303C297.575 129.144 305.774 123.423 310.66 127.607C315.546 131.791 314.232 136.409 309.812 141.767Z" fill="#FF3EC6" stroke="white" stroke-width="3.645" stroke-linecap="round" stroke-linejoin="round"/>
<path d="M308.885 170.881C300.684 162.824 281.711 187.286 288.101 194.001C294.228 200.44 317.937 179.773 308.885 170.881Z" fill="#FF3EC6" stroke="white" stroke-width="3.645" stroke-linecap="round" stroke-linejoin="round"/>
<path d="M299.692 159.816C290.149 151.355 268.811 179.991 276.252 187.072C283.389 193.862 310.223 169.153 299.692 159.816Z" fill="#FF3EC6" stroke="white" stroke-width="3.645" stroke-linecap="round" stroke-linejoin="round"/>
<path d="M262.872 175.206C266.216 181.916 263.534 187.544 261.775 189.519L254.409 204.496C241.705 196.724 235.832 182.711 245.191 166.833C247.705 161.041 255.393 151.025 266.028 157.298C276.663 163.572 286.571 166.805 286.475 170.915C286.298 178.442 279.912 179.466 272.724 178.287C268.984 177.674 265.303 176.451 262.872 175.206Z" fill="#FF3EC6"/>
<path d="M261.775 189.519C263.534 187.544 266.216 181.916 262.872 175.206C265.303 176.451 268.984 177.674 272.724 178.287C279.912 179.466 286.298 178.442 286.475 170.915C286.571 166.805 276.663 163.572 266.028 157.298C255.393 151.025 247.705 161.041 245.191 166.833C235.832 182.711 241.705 196.724 254.409 204.496C267.112 212.267 282.286 209.01 292.967 195.812" stroke="white" stroke-width="3.645" stroke-linecap="round" stroke-linejoin="round"/>
<defs>
<clipPath id="clip0_0_2733">
<rect width="94.1625" height="93.6323" fill="white" transform="translate(0 115.758)"/>
</clipPath>
</defs>
</svg>
